<svg width="48" height="48" viewBox="0 0 48 48" fill="none" xmlns="http://www.w3.org/2000/svg">
<g filter="url(#filter0_d_2_21)">
<path d="M13.6 5.79999C9.29805 5.79999 5.80005 9.29799 5.80005 13.6V24.4C5.80005 28.702 9.29805 32.2 13.6 32.2H24.4C28.702 32.2 32.2 28.702 32.2 24.4V13.6C32.2 9.29799 28.702 5.79999 24.4 5.79999H13.6ZM26.2 10.6C26.86 10.6 27.4 11.14 27.4 11.8C27.4 12.46 26.86 13 26.2 13C25.54 13 25 12.46 25 11.8C25 11.14 25.54 10.6 26.2 10.6ZM19 12.4C22.642 12.4 25.6 15.358 25.6 19C25.6 22.642 22.642 25.6 19 25.6C15.358 25.6 12.4 22.642 12.4 19C12.4 15.358 15.358 12.4 19 12.4ZM19 13.6C16.024 13.6 13.6 16.024 13.6 19C13.6 21.976 16.024 24.4 19 24.4C21.976 24.4 24.4 21.976 24.4 19C24.4 16.024 21.976 13.6 19 13.6Z" fill="white"/>
</g>
<defs>
<filter id="filter0_d_2_21" x="-1" y="-1" width="50" height="50" filterUnits="userSpaceOnUse" color-interpolation-filters="sRGB">
<feFlood flood-opacity="0" result="BackgroundImageFix"/>
<feColorMatrix in="SourceAlpha" type="matrix" values="0 0 0 0 0 0 0 0 0 0 0 0 0 0 0 0 0 0 127 0" result="hardAlpha"/>
<feOffset dx="5" dy="5"/>
<feGaussianBlur stdDeviation="5"/>
<feComposite in2="hardAlpha" operator="out"/>
<feColorMatrix type="matrix" values="0 0 0 0 0 0 0 0 0 0 0 0 0 0 0 0 0 0 1 0"/>
<feBlend mode="normal" in2="BackgroundImageFix" result="effect1_dropShadow_2_21"/>
<feBlend mode="normal" in="SourceGraphic" in2="effect1_dropShadow_2_21" result="shape"/>
</filter>
</defs>
</svg>
