<svg width="48" height="48" viewBox="0 0 48 48" fill="none" xmlns="http://www.w3.org/2000/svg">
<g filter="url(#filter0_d_2_19)">
<path d="M19 5.20001C11.3908 5.20001 5.19995 11.3908 5.19995 19C5.19995 26.6092 11.3908 32.8 19 32.8C26.6098 32.8 32.8 26.6092 32.8 19C32.8 11.3908 26.6098 5.20001 19 5.20001ZM24.9838 21.721C26.326 22.9126 26.605 23.338 26.6506 23.4106C27.2068 24.2926 26.0338 24.4 26.0338 24.4H23.5618C23.5618 24.4 22.96 24.4066 22.4458 24.0658C21.6076 23.5168 20.7298 22.4524 20.113 22.6372C19.5952 22.792 19.6 23.4916 19.6 24.0898C19.6 24.304 19.4158 24.4 19 24.4C18.5842 24.4 18.4114 24.4 18.2272 24.4C16.873 24.4 15.4036 23.944 13.9378 22.4122C11.8642 20.2468 10.0456 15.8848 10.0456 15.8848C10.0456 15.8848 9.93815 15.6652 10.0552 15.5314C10.1878 15.3814 10.5484 15.4006 10.5484 15.4006L12.9454 15.4C12.9454 15.4 13.171 15.4426 13.333 15.5566C13.4668 15.6502 13.5412 15.829 13.5412 15.829C13.5412 15.829 13.9438 17.1586 14.4568 18.0064C15.4588 19.6612 15.925 19.7032 16.2652 19.525C16.762 19.267 16.6 17.5078 16.6 17.5078C16.6 17.5078 16.6222 16.7524 16.363 16.4158C16.1632 16.1554 15.781 16.0168 15.6142 15.9952C15.4792 15.9778 15.7048 15.7414 15.9922 15.6064C16.3762 15.4354 16.8988 15.3916 17.8 15.4C18.5014 15.4066 18.7036 15.4486 18.9772 15.5116C19.8046 15.7024 19.6 16.2058 19.6 17.9734C19.6 18.5398 19.522 19.336 19.9492 19.6C20.1334 19.714 20.7646 19.8532 21.8878 18.0292C22.4212 17.164 22.8454 15.7288 22.8454 15.7288C22.8454 15.7288 22.933 15.571 23.0692 15.493C23.2084 15.4132 23.2042 15.415 23.395 15.415C23.5858 15.415 25.4992 15.4 25.9192 15.4C26.3386 15.4 26.7322 15.3952 26.8 15.6412C26.8972 15.9946 26.4904 17.2054 25.4596 18.5194C23.7658 20.6758 23.578 20.4742 24.9838 21.721Z" fill="white"/>
</g>
<defs>
<filter id="filter0_d_2_19" x="-1" y="-1" width="50" height="50" filterUnits="userSpaceOnUse" color-interpolation-filters="sRGB">
<feFlood flood-opacity="0" result="BackgroundImageFix"/>
<feColorMatrix in="SourceAlpha" type="matrix" values="0 0 0 0 0 0 0 0 0 0 0 0 0 0 0 0 0 0 127 0" result="hardAlpha"/>
<feOffset dx="5" dy="5"/>
<feGaussianBlur stdDeviation="5"/>
<feComposite in2="hardAlpha" operator="out"/>
<feColorMatrix type="matrix" values="0 0 0 0 0 0 0 0 0 0 0 0 0 0 0 0 0 0 1 0"/>
<feBlend mode="normal" in2="BackgroundImageFix" result="effect1_dropShadow_2_19"/>
<feBlend mode="normal" in="SourceGraphic" in2="effect1_dropShadow_2_19" result="shape"/>
</filter>
</defs>
</svg>
