<svg width="48" height="48" viewBox="0 0 48 48" fill="none" xmlns="http://www.w3.org/2000/svg">
<g filter="url(#filter0_d_2_17)">
<path d="M19 5.20001C11.3908 5.20001 5.20004 11.3908 5.20004 19C5.20004 21.376 5.81384 23.7124 6.97784 25.774L5.22224 32.038C5.16464 32.2438 5.22044 32.4646 5.36924 32.6176C5.48384 32.7358 5.63984 32.8 5.80004 32.8C5.84804 32.8 5.89664 32.794 5.94404 32.7826L12.4816 31.1632C14.4778 32.2348 16.726 32.8 19 32.8C26.6092 32.8 32.8 26.6092 32.8 19C32.8 11.3908 26.6092 5.20001 19 5.20001ZM25.942 23.8696C25.6468 24.6868 24.2308 25.4326 23.5504 25.5328C22.9396 25.6222 22.1668 25.6606 21.3184 25.3942C20.8042 25.2322 20.1442 25.0174 19.2988 24.6568C15.745 23.1412 13.4242 19.6078 13.2466 19.3744C13.0696 19.141 11.8 17.4778 11.8 15.7564C11.8 14.035 12.715 13.1884 13.0402 12.838C13.3654 12.4876 13.7488 12.4 13.9852 12.4C14.2216 12.4 14.4574 12.403 14.6644 12.4126C14.8822 12.4234 15.1744 12.3304 15.4618 13.0132C15.757 13.714 16.4656 15.4354 16.5532 15.6112C16.642 15.7864 16.7008 15.991 16.5832 16.2244C16.4656 16.4578 16.4068 16.6036 16.2292 16.8082C16.0516 17.0128 15.8572 17.2642 15.6976 17.4214C15.52 17.596 15.3358 17.785 15.5422 18.1354C15.7486 18.4858 16.4596 19.6312 17.5132 20.5588C18.8662 21.7504 20.008 22.12 20.362 22.2952C20.716 22.4704 20.923 22.441 21.1294 22.2076C21.3358 21.9736 22.015 21.1858 22.2508 20.836C22.4866 20.4862 22.723 20.5438 23.0482 20.6608C23.3734 20.7772 25.1152 21.6232 25.4692 21.7984C25.8232 21.9736 26.0596 22.0612 26.1484 22.207C26.2372 22.3522 26.2372 23.053 25.942 23.8696Z" fill="white"/>
</g>
<defs>
<filter id="filter0_d_2_17" x="-1" y="-1" width="50" height="50" filterUnits="userSpaceOnUse" color-interpolation-filters="sRGB">
<feFlood flood-opacity="0" result="BackgroundImageFix"/>
<feColorMatrix in="SourceAlpha" type="matrix" values="0 0 0 0 0 0 0 0 0 0 0 0 0 0 0 0 0 0 127 0" result="hardAlpha"/>
<feOffset dx="5" dy="5"/>
<feGaussianBlur stdDeviation="5"/>
<feComposite in2="hardAlpha" operator="out"/>
<feColorMatrix type="matrix" values="0 0 0 0 0 0 0 0 0 0 0 0 0 0 0 0 0 0 1 0"/>
<feBlend mode="normal" in2="BackgroundImageFix" result="effect1_dropShadow_2_17"/>
<feBlend mode="normal" in="SourceGraphic" in2="effect1_dropShadow_2_17" result="shape"/>
</filter>
</defs>
</svg>
